<svg width="18" height="16" viewBox="0 0 18 16" fill="none" xmlns="http://www.w3.org/2000/svg">
<path d="M5.5 5.99998C4.80964 5.99998 4.25 6.55962 4.25 7.24998C4.25 7.94033 4.80964 8.49998 5.5 8.49998C6.19036 8.49998 6.75 7.94033 6.75 7.24998C6.75 6.55962 6.19036 5.99998 5.5 5.99998Z" fill="#F0FFFF"/>
<path d="M9.5 5.99998C8.80964 5.99998 8.25 6.55962 8.25 7.24998C8.25 7.94033 8.80964 8.49998 9.5 8.49998C10.1904 8.49998 10.75 7.94033 10.75 7.24998C10.75 6.55962 10.1904 5.99998 9.5 5.99998Z" fill="#F0FFFF"/>
<path d="M12.25 7.24998C12.25 6.55962 12.8096 5.99998 13.5 5.99998C14.1904 5.99998 14.75 6.55962 14.75 7.24998C14.75 7.94033 14.1904 8.49998 13.5 8.49998C12.8096 8.49998 12.25 7.94033 12.25 7.24998Z" fill="#F0FFFF"/>
<path fill-rule="evenodd" clip-rule="evenodd" d="M13.6007 1.09277C10.9065 0.863008 8.19826 0.849675 5.50194 1.0529L5.30871 1.06746C2.73741 1.26126 0.75 3.40409 0.75 5.98269V14.5C0.75 14.7639 0.888666 15.0083 1.11515 15.1437C1.34163 15.2791 1.62261 15.2855 1.85504 15.1606L5.76583 13.0589C5.94774 12.9611 6.15104 12.91 6.35756 12.91H15.334C16.4661 12.91 17.4362 12.1006 17.6392 10.9868C18.0505 8.7296 18.0829 6.41963 17.7353 4.15173L17.6329 3.4834C17.4464 2.26665 16.451 1.33584 15.2245 1.23124L13.6007 1.09277ZM5.61468 2.54865C8.23103 2.35146 10.859 2.3644 13.4733 2.58734L15.097 2.72581C15.6334 2.77155 16.0686 3.17859 16.1502 3.71067L16.2526 4.379C16.575 6.48228 16.5449 8.62457 16.1635 10.718C16.0904 11.1187 15.7413 11.41 15.334 11.41H6.35756C5.90322 11.41 5.45596 11.5225 5.05575 11.7376L2.25 13.2455V5.98269C2.25 4.18878 3.63262 2.69804 5.42144 2.56322L5.61468 2.54865Z" fill="#F0FFFF"/>
</svg>
