<svg width="108" height="38" viewBox="0 0 108 38" fill="none" xmlns="http://www.w3.org/2000/svg">
<path d="M4.56672 3.08V25.08H20.7267V29H0.00671881V3.08H4.56672ZM30.3089 0.639998V4.92H24.9889V0.639998H30.3089ZM25.3889 9.08H29.8689V29H25.3889V9.08ZM35.187 9.08H39.627V29H35.187V9.08ZM48.027 8.64C49.1737 8.64 50.227 8.8 51.187 9.12C52.1737 9.44 53.0137 9.93333 53.707 10.6C54.427 11.24 54.9737 12.04 55.347 13C55.747 13.96 55.947 15.0933 55.947 16.4V29H51.507V17.28C51.507 15.6533 51.107 14.4533 50.307 13.68C49.5337 12.88 48.307 12.48 46.627 12.48C45.347 12.48 44.1737 12.76 43.107 13.32C42.067 13.8533 41.2137 14.56 40.547 15.44C39.8804 16.2933 39.4937 17.24 39.387 18.28L39.347 16.12C39.4804 15.1333 39.7737 14.2 40.227 13.32C40.6804 12.4133 41.2804 11.6133 42.027 10.92C42.7737 10.2 43.6537 9.64 44.667 9.24C45.6804 8.84 46.8004 8.64 48.027 8.64ZM69.7311 25.92C67.8644 25.92 66.1711 25.5867 64.6511 24.92C63.1578 24.2533 61.9711 23.28 61.0911 22C60.2378 20.72 59.8111 19.1867 59.8111 17.4C59.8111 15.6133 60.2244 14.0667 61.0511 12.76C61.9044 11.4533 63.0778 10.44 64.5711 9.72C66.0911 9 67.8111 8.64 69.7311 8.64C70.2911 8.64 70.8244 8.68 71.3311 8.76C71.8644 8.84 72.3711 8.94667 72.8511 9.08L82.1711 9.12V12.84C80.8911 12.8667 79.5978 12.6933 78.2911 12.32C77.0111 11.92 75.8778 11.5067 74.8911 11.08L74.7711 10.84C75.6778 11.2933 76.4911 11.8533 77.2111 12.52C77.9578 13.16 78.5444 13.8933 78.9711 14.72C79.3978 15.5467 79.6111 16.48 79.6111 17.52C79.6111 19.28 79.1844 20.7867 78.3311 22.04C77.5044 23.2933 76.3444 24.2533 74.8511 24.92C73.3844 25.5867 71.6778 25.92 69.7311 25.92ZM76.1311 37.12V36.2C76.1311 34.8933 75.7444 33.9733 74.9711 33.44C74.1978 32.9067 73.1178 32.64 71.7311 32.64H66.3311C65.2644 32.64 64.3444 32.5467 63.5711 32.36C62.8244 32.2 62.2244 31.9467 61.7711 31.6C61.3178 31.28 60.9844 30.8933 60.7711 30.44C60.5578 30.0133 60.4511 29.5333 60.4511 29C60.4511 27.9333 60.7711 27.1333 61.4111 26.6C62.0778 26.0667 62.9444 25.72 64.0111 25.56C65.1044 25.4 66.2511 25.3733 67.4511 25.48L69.7311 25.92C68.1578 25.9733 66.9578 26.12 66.1311 26.36C65.3311 26.5733 64.9311 27.0133 64.9311 27.68C64.9311 28.08 65.0911 28.4 65.4111 28.64C65.7311 28.88 66.1844 29 66.7711 29H72.4511C74.0778 29 75.5044 29.1867 76.7311 29.56C77.9578 29.96 78.9044 30.6133 79.5711 31.52C80.2644 32.4533 80.6111 33.72 80.6111 35.32V37.12H76.1311ZM69.7311 22.44C70.7978 22.44 71.7444 22.24 72.5711 21.84C73.3978 21.44 74.0511 20.8667 74.5311 20.12C75.0111 19.3733 75.2511 18.4667 75.2511 17.4C75.2511 16.3333 75.0111 15.4133 74.5311 14.64C74.0511 13.8667 73.3978 13.28 72.5711 12.88C71.7444 12.48 70.7978 12.28 69.7311 12.28C68.6911 12.28 67.7444 12.48 66.8911 12.88C66.0644 13.28 65.4111 13.8667 64.9311 14.64C64.4511 15.3867 64.2111 16.3067 64.2111 17.4C64.2111 18.4667 64.4511 19.3733 64.9311 20.12C65.4111 20.8667 66.0644 21.44 66.8911 21.84C67.7178 22.24 68.6644 22.44 69.7311 22.44ZM96.0995 29.44C93.8862 29.44 91.8995 29.04 90.1395 28.24C88.3795 27.44 86.9929 26.2667 85.9795 24.72C84.9662 23.1733 84.4595 21.2933 84.4595 19.08C84.4595 16.8933 84.9662 15.0267 85.9795 13.48C86.9929 11.9067 88.3795 10.7067 90.1395 9.88C91.8995 9.05333 93.8862 8.64 96.0995 8.64C98.3129 8.64 100.286 9.05333 102.02 9.88C103.753 10.7067 105.113 11.9067 106.1 13.48C107.113 15.0267 107.62 16.8933 107.62 19.08C107.62 21.2933 107.113 23.1733 106.1 24.72C105.113 26.2667 103.753 27.44 102.02 28.24C100.286 29.04 98.3129 29.44 96.0995 29.44ZM96.0995 25.8C97.3795 25.8 98.5529 25.5467 99.6195 25.04C100.686 24.5333 101.526 23.7733 102.14 22.76C102.78 21.7467 103.1 20.52 103.1 19.08C103.1 17.64 102.78 16.4133 102.14 15.4C101.526 14.3867 100.686 13.6133 99.6195 13.08C98.5795 12.52 97.4062 12.24 96.0995 12.24C94.7929 12.24 93.6062 12.5067 92.5395 13.04C91.4729 13.5733 90.6062 14.3467 89.9395 15.36C89.2995 16.3733 88.9795 17.6133 88.9795 19.08C88.9795 20.52 89.2995 21.7467 89.9395 22.76C90.5795 23.7733 91.4329 24.5333 92.4995 25.04C93.5929 25.5467 94.7929 25.8 96.0995 25.8Z" fill="#D2E0DE"/>
</svg>
