<svg width="19" height="20" viewBox="0 0 19 20" fill="none" xmlns="http://www.w3.org/2000/svg">
<path d="M9 0C9.55229 0 10 0.447715 10 1V1.75H10.5574C11.7394 1.75 12.8132 2.23822 13.5811 3.02888C13.6725 3.12308 13.6668 3.27254 13.5739 3.36539L12.8712 4.06817C12.766 4.17338 12.5933 4.16314 12.4887 4.05727C11.9953 3.5577 11.3105 3.25 10.5574 3.25H7.44258C6.00958 3.25 4.82354 4.36417 4.73409 5.79438L4.51309 9.32784C4.41169 10.949 3.86744 12.5112 2.93959 13.8444C2.88921 13.9168 2.89094 14.0392 2.82886 14.1019L2.06546 14.8722C1.9675 14.9711 1.80583 14.9718 1.72466 14.8587C1.34697 14.3326 1.28858 13.5908 1.7084 12.9876C2.47946 11.8797 2.93175 10.5814 3.01601 9.2342L3.23702 5.70074C3.37591 3.48001 5.21751 1.75 7.44258 1.75H8V1C8 0.447715 8.44772 0 9 0Z" fill="#F0FFFF"/>
<path fill-rule="evenodd" clip-rule="evenodd" d="M14.7863 6.07431L18.0303 2.83032C18.3232 2.53742 18.3232 2.06255 18.0303 1.76966C17.7374 1.47676 17.2626 1.47676 16.9697 1.76966L0.96967 17.7697C0.676777 18.0626 0.676777 18.5374 0.96967 18.8303C1.26256 19.1232 1.73744 19.1232 2.03033 18.8303L5.07613 15.7845L6.24999 15.9254V17C6.24999 18.5188 7.48121 19.75 9 19.75C10.5188 19.75 11.75 18.5188 11.75 17V15.9254L15.1571 15.5165C16.3681 15.3712 16.9883 13.9886 16.2916 12.9876C15.5205 11.8797 15.0682 10.5814 14.984 9.2342L14.7863 6.07431ZM13.3719 7.48877L6.42503 14.4356L6.75925 14.4757C8.24774 14.6543 9.75225 14.6543 11.2407 14.4757L14.9784 14.0272C15.0659 14.0167 15.1108 13.9168 15.0604 13.8444C14.1326 12.5112 13.5883 10.949 13.4869 9.32784L13.3719 7.48877ZM9 18.25C8.30964 18.25 7.74999 17.6904 7.74999 17V16.25H10.25V17C10.25 17.6904 9.69035 18.25 9 18.25Z" fill="#F0FFFF"/>
</svg>
