<svg width="21" height="20" viewBox="0 0 21 20" fill="none" xmlns="http://www.w3.org/2000/svg">
<path d="M12 7.75002C12 7.3358 11.6642 7.00002 11.25 7.00002H5.25C4.83579 7.00002 4.5 7.3358 4.5 7.75002C4.5 8.16423 4.83579 8.50002 5.25 8.50002H11.25C11.6642 8.50002 12 8.16423 12 7.75002Z" fill="#AAE8DF"/>
<path d="M11 10.75C11 10.3358 10.6642 10 10.25 10H5.25C4.83579 10 4.5 10.3358 4.5 10.75C4.5 11.1642 4.83579 11.5 5.25 11.5H10.25C10.6642 11.5 11 11.1642 11 10.75Z" fill="#AAE8DF"/>
<path d="M11.25 13C11.6642 13 12 13.3358 12 13.75C12 14.1642 11.6642 14.5 11.25 14.5H5.25C4.83579 14.5 4.5 14.1642 4.5 13.75C4.5 13.3358 4.83579 13 5.25 13H11.25Z" fill="#AAE8DF"/>
<path fill-rule="evenodd" clip-rule="evenodd" d="M4.5 19.75H17.5C19.0188 19.75 20.25 18.5188 20.25 17V11.5C20.25 11.0858 19.9142 10.75 19.5 10.75H16.25V2.94321C16.25 1.51981 14.6411 0.691843 13.4828 1.51918L13.3078 1.64421C12.5273 2.2017 11.4701 2.19983 10.6859 1.63972C9.38206 0.70839 7.61794 0.70839 6.31407 1.63972C5.52992 2.19983 4.4727 2.2017 3.69221 1.64421L3.51717 1.51918C2.3589 0.691843 0.75 1.51981 0.75 2.94321V16C0.75 18.0711 2.42893 19.75 4.5 19.75ZM7.18593 2.86032C7.96825 2.30152 9.03175 2.30152 9.81407 2.86032C11.1161 3.79035 12.8739 3.79745 14.1796 2.86481L14.3547 2.73978C14.5202 2.62159 14.75 2.73987 14.75 2.94321V17C14.75 17.4501 14.8581 17.875 15.0499 18.25H4.5C3.25736 18.25 2.25 17.2427 2.25 16V2.94321C2.25 2.73987 2.47984 2.62159 2.64531 2.73978L2.82036 2.86481C4.12605 3.79745 5.8839 3.79034 7.18593 2.86032ZM16.25 17V12.25H18.75V17C18.75 17.6904 18.1904 18.25 17.5 18.25C16.8096 18.25 16.25 17.6904 16.25 17Z" fill="#AAE8DF"/>
</svg>
